<svg id="Layer_1" data-name="Layer 1" xmlns="http://www.w3.org/2000/svg" xmlns:xlink="http://www.w3.org/1999/xlink" viewBox="0 0 408.54 187.66"><defs><style>.cls-1{fill:none;}.cls-2{clip-path:url(#clip-path);}.cls-3{fill:#cf6019;}</style><clipPath id="clip-path"><path class="cls-1" d="M54.54-484.68H89.89l.3-2.09H56.55l-2,2.09m4.76-4.95H90.59l.3-2.11H61.32Zm4.75-5H91.29l.29-2.08H66.06ZM49.78-479.74H89.2l.29-2.09H51.79ZM45-474.8H88.51l.28-2.08H47Zm42.81-44.53h6.92l.3-2.1H89.85Zm-4.76,4.94h11l.3-2.09H85.09Zm11.52-12-2,2.1h2.87l.29-2.1Zm-21,21.89h19.1l.3-2.08H75.57Zm-4.76,4.95H92l.29-2.1H70.82Zm9.52-9.9h15l.29-2.09H80.33Z"/></clipPath></defs><path class="cls-3" d="M230.4,61.44a2,2,0,0,1,2,2v60.53a1.79,1.79,0,0,1-1.77,1.83H218.05a3.88,3.88,0,0,1-2.15-1s-22.48-30.85-23.2-31.64a14.3,14.3,0,0,1-1.51-2.87v33.71a1.83,1.83,0,0,1-1.81,1.84H175.25a1.82,1.82,0,0,1-1.91-1.73V63.44a1.82,1.82,0,0,1,1.81-1.84h12.61a3.49,3.49,0,0,1,2.07,1S212.07,92.93,213,94.28a17.47,17.47,0,0,1,1.59,2.87V63.44a1.81,1.81,0,0,1,1.77-1.84h.06C216.45,61.44,229.53,61.44,230.4,61.44ZM329.23,149a55.44,55.44,0,1,1,55.15-55.4A55.4,55.4,0,0,1,329.23,149ZM202.9,149a55.44,55.44,0,1,1,55.16-55.4A55.4,55.4,0,0,1,202.9,149ZM76.58,149a55.44,55.44,0,1,1,55.15-55.4c-.08,30.53-24.86,55.4-55.15,55.4Zm252.65-127A71.62,71.62,0,0,0,266,60.65a71.06,71.06,0,0,0-126.41,0A71.26,71.26,0,0,0,76.26,22.07c-39,0-70.93,32.12-70.93,71.57s32,71.5,71.25,71.5a71.52,71.52,0,0,0,63.2-38.58,71.13,71.13,0,0,0,126.49,0,71.15,71.15,0,0,0,63.2,38.58c39.29,0,71.25-32.12,71.25-71.5C400.48,54.19,368.44,22.07,329.23,22.07ZM49.8,62.64A1.79,1.79,0,0,0,48,64.41v12.1a1.8,1.8,0,0,0,1.77,1.83H64.3a18.54,18.54,0,0,0,2.79-.24v47.42a1.82,1.82,0,0,0,1.78,1.84h15a1.8,1.8,0,0,0,1.83-1.78V78.1a29.57,29.57,0,0,0,3.51.24H103a1.79,1.79,0,0,0,1.83-1.77V64.47a1.81,1.81,0,0,0-1.77-1.83H49.8Zm306.13,0a1.79,1.79,0,0,1,1.83,1.77v12.1A1.8,1.8,0,0,1,356,78.34H342.14a30.6,30.6,0,0,1-3.58-.24v47.42a1.82,1.82,0,0,1-1.78,1.84h-15a1.8,1.8,0,0,1-1.83-1.78V78.1a18.77,18.77,0,0,1-2.79.24H302.69a1.79,1.79,0,0,1-1.83-1.77V64.47a1.81,1.81,0,0,1,1.77-1.83h53.3Z"/></svg>