<svg id="Layer_1" data-name="Layer 1" xmlns="http://www.w3.org/2000/svg" xmlns:xlink="http://www.w3.org/1999/xlink" viewBox="0 0 408.54 187.66"><defs><style>.cls-1{fill:none;}.cls-2{clip-path:url(#clip-path);}.cls-3{fill:#b30f18;}</style><clipPath id="clip-path"><path class="cls-1" d="M-367.69-74.19h35.36l.3-2.08h-33.64l-2,2.08m4.77-5h31.28l.3-2.1h-29.57Zm4.74-5h27.24l.3-2.08h-25.52Zm-14.27,14.84H-333l.29-2.08h-37.69Zm-4.74,5h43.47l.28-2.08h-41.75Zm42.8-44.53h6.93l.3-2.1h-5.22Zm-4.76,4.94h11l.29-2.09h-9.28Zm11.53-12-2,2.11h2.88l.29-2.11Zm-21,21.9h19.11l.3-2.09h-17.41ZM-353.42-89h23.17l.3-2.11H-351.4Zm9.52-9.9h15l.29-2.09H-341.9Z"/></clipPath></defs><path class="cls-3" d="M74.57,64.52,62,81.64h68.67c3.47,0,3.43,1.31,1.73,3.62S127.76,91.64,126,94c-.9,1.21-2.51,3.4,2.83,3.4h28.08l8.32-11.31c5.16-7,.45-21.58-18-21.58Z"/><path class="cls-3" d="M56.87,120.3,82.18,85.9h31.41c3.47,0,3.43,1.32,1.73,3.62l-6.41,8.73c-.89,1.2-2.5,3.4,2.83,3.4h42.07c-3.49,4.79-14.85,18.65-35.22,18.65Zm144.94-18.66L188.09,120.3H151.88l13.73-18.66Zm55.46-4.23H168.72l24.22-32.89h36.19L215.25,83.38H231.4l13.89-18.86h36.19Zm-3.11,4.23L240.44,120.3H204.25L218,101.64ZM5.21,109H58.54l-2.91,4H5.21Zm0-7.36H64l-2.92,4H5.21Zm0,14.72H53.13l-2.9,3.94h-45ZM399.6,113H346.47l2.91-4H399.6Zm0,7.35H341.07l2.89-3.94H399.6Zm-44.8-18.66h44.8v4H351.89ZM331.6,64.52,307.39,97.41H269l24.23-32.89Zm-65.66,37.12S263.3,105.26,262,107c-4.54,6.15-.53,13.3,14.3,13.3h58.13l13.72-18.65Z"/></svg>