<svg id="Layer_1" data-name="Layer 1" xmlns="http://www.w3.org/2000/svg" xmlns:xlink="http://www.w3.org/1999/xlink" viewBox="0 0 408.54 187.66"><defs><style>.cls-1{fill:none;}.cls-2{clip-path:url(#clip-path);}.cls-3{fill:#0065a3;}.cls-4{fill:#c52f1b;}.cls-5{fill:#0a0a0d;}</style><clipPath id="clip-path"><path class="cls-1" d="M-367.69-279.44h35.36l.3-2.08h-33.64l-2,2.08m4.77-4.94h31.28l.3-2.11h-29.57Zm4.74-5h27.24l.3-2.08h-25.52Zm-14.27,14.84H-333l.29-2.08h-37.69Zm-4.74,4.95h43.47l.28-2.08h-41.75Zm42.8-44.53h6.93l.3-2.1h-5.22Zm-4.76,4.94h11l.29-2.09h-9.28Zm11.53-12-2,2.1h2.88l.29-2.1Zm-21,21.89h19.11l.3-2.09h-17.41Zm-4.76,4.95h23.17l.3-2.1H-351.4Zm9.52-9.9h15l.29-2.09H-341.9Z"/></clipPath></defs><path class="cls-3" d="M105.39,62H69.72l-4.6,12.65h35.66a9.25,9.25,0,0,0,8-5.83l4.6-12.66A9.53,9.53,0,0,1,105.39,62Z"/><path class="cls-4" d="M99.37,78.54H63.69l-4.6,12.65H94.75a9.24,9.24,0,0,0,8-5.84l4.61-12.65A9.43,9.43,0,0,1,99.37,78.54Z"/><path class="cls-3" d="M12.8,120.37H48.47l4.61-12.65H17.41a9.24,9.24,0,0,0-8,5.84L4.84,126.21A9.55,9.55,0,0,1,12.8,120.37Z"/><path class="cls-4" d="M18.82,103.83H54.49l4.6-12.64H23.43a9.24,9.24,0,0,0-8,5.84l-4.61,12.64A9.43,9.43,0,0,1,18.82,103.83Z"/><path class="cls-4" d="M29.91,44.89V80.57l12.64,4.6V49.5a9.22,9.22,0,0,0-5.84-8L24.08,36.93A9.58,9.58,0,0,1,29.91,44.89Z"/><path class="cls-3" d="M46.44,50.91V86.58l12.65,4.61V55.52a9.22,9.22,0,0,0-5.84-8L40.61,43A9.42,9.42,0,0,1,46.44,50.91Z"/><path class="cls-4" d="M88.28,137.48V101.81l-12.65-4.6v35.66a9.21,9.21,0,0,0,5.84,8l12.65,4.6A9.5,9.5,0,0,1,88.28,137.48Z"/><path class="cls-3" d="M71.74,131.46V95.79L59.1,91.19v35.66a9.24,9.24,0,0,0,5.84,8l12.64,4.6A9.43,9.43,0,0,1,71.74,131.46Z"/><path class="cls-5" d="M287.2,130.7c-2.49,0-4.05-2-4.05-4.89V100.29h5.61c4.91,0,6.42-5.89,6.42-5.89h-12V82.6l-19.79,17.69h7.07v26.07c0,7.56,6.17,11.52,12.63,11.52a14.35,14.35,0,0,0,11.61-5.62l0,0a23.82,23.82,0,0,1-2.5-3.65,8.33,8.33,0,0,1-4.95,2.12Z"/><path class="cls-5" d="M163.85,101.58c8.2-2.31,12.44-8,12.44-13.91,0-8.76-8-15.57-19.16-15.57H129.67a8.1,8.1,0,0,1,3.41,6.44v57.87h23.4c13.36,0,23.87-7.56,23.87-18.24C180.34,110.06,173.52,103.33,163.85,101.58ZM146.71,78h4c7.19,0,11.7,3.77,11.7,10.87,0,6-4.89,10.78-11.7,10.78h-4Zm6,52.42h-6V105.54h6c7.19,0,13,5.07,13,12.44S159.79,130.42,152.7,130.42Z"/><path class="cls-5" d="M222.8,87.49a7.14,7.14,0,1,0-7.1-7.19A7.18,7.18,0,0,0,222.8,87.49Z"/><path class="cls-5" d="M229.34,131.77V94.39H214.5a4.89,4.89,0,0,1,2.21,4.52v37.5h12.62Z"/><path class="cls-5" d="M212.12,96.15a8.86,8.86,0,0,0-6.73-3.05c-3.32,0-6.91,1.84-9.21,6.36-.64-3-2.67-5.07-6.45-5.07h-8.38a4.89,4.89,0,0,1,2.21,4.52v33h0v4.51h12.62V108.58a8.74,8.74,0,0,1,8.29-6.08,8.43,8.43,0,0,1,7.65,4.7Z"/><path class="cls-5" d="M250,109.14c-4.24-1.76-6.45-3.13-6.45-5.72,0-3.5,4.05-4.33,6.82-4.33a12.87,12.87,0,0,1,10.87,6.54V95.13a31.76,31.76,0,0,0-11-2c-8.29,0-16.77,3.69-16.77,13.17,0,6.55,4,11.16,11.24,14,5.53,2.12,7.65,4,7.65,6.91,0,3.41-3.51,4.52-6.73,4.52-4.6,0-8.2-2.12-9.86-6.82V136a30.08,30.08,0,0,0,9.86,1.75c8.48,0,18.06-4.24,18.06-14.09,0-6.37-4.24-10.51-13.73-14.47Z"/><path class="cls-5" d="M316.85,93.19c-13,0-23.4,9.86-23.4,22.21s10.41,22.48,23.4,22.48,23.41-10.13,23.41-22.48S329.75,93.19,316.85,93.19Zm1,38.43c-7.83,0-11.33-11.61-11.33-17.79,0-8.11,4-14.37,9.3-14.37,7.83,0,11.24,11.33,11.24,17.5,0,8.2-4,14.66-9.21,14.66Z"/><path class="cls-5" d="M392.66,94.39c.64.57.87.88.87,1.42a4.31,4.31,0,0,1-.28,1.53L384.87,117,373.08,93.12l-11.8,23.94-7.18-16.77a9.22,9.22,0,0,0-8.47-5.89h-9.16A9.87,9.87,0,0,1,338.13,96a7.58,7.58,0,0,1,1.09,1.79h0l18,40.13,12.16-24.5,12.07,24.5L400,96.72a.19.19,0,0,1,0-.09l.93-2.22h-8.3"/></svg>