<?xml version="1.0" encoding="utf-8"?>
<!-- Generator: Adobe Illustrator 25.2.1, SVG Export Plug-In . SVG Version: 6.00 Build 0)  -->
<svg version="1.1" id="Layer_1" xmlns="http://www.w3.org/2000/svg" xmlns:xlink="http://www.w3.org/1999/xlink" x="0px" y="0px"
	 viewBox="0 0 408.5 157" style="enable-background:new 0 0 408.5 157;" xml:space="preserve">
<style type="text/css">
	.st0{fill:#757575;}
	.st1{fill:#FBE666;}
</style>
<g>
	<g id="color_757575ff">
		<path class="st0" d="M203.3,16.4c2.8-0.8,6.1-0.3,8.3,1.7c1.9,1.7,2.7,4.4,2.7,6.9c0,24.7,0,49.4,0,74.1
			c-0.1,3.7,0.6,7.8-1.6,11.1c-2.3,3.3-7.1,4.2-10.6,2.4c-2.9-1.4-4.4-4.7-4.4-7.8c0-25.5,0-51.1,0-76.6c0-2.3-0.2-4.6,0.6-6.8
			C199.1,19,201,17.1,203.3,16.4z"/>
		<path class="st0" d="M137.6,63c4.2-6,11.2-9.7,18.4-10.4c7.7-0.8,16.2,0.5,22.1,5.7c5.5,4.9,8,12.3,8.5,19.5
			c0.2,2.8,0.6,5.9-0.9,8.5c-1.1,2-3.7,2.6-5.8,2.6c-10.7,0-21.3,0-32,0c0.7,4,2.5,8.2,6.5,9.9c5.5,2.3,11.7,1,17.2-0.7
			c2.2-0.6,4.4-1.5,6.7-1.1c3.2,0.7,5.5,4.1,5.1,7.4c-0.3,2.5-2.3,4.2-4.4,5.4c-3.7,2.1-8,2.9-12.2,3.4c-7.9,0.9-16.5,0.3-23.3-4.2
			c-6.7-4.4-10.6-12.1-11.5-19.9C131,80.1,132.3,70.4,137.6,63 M153.2,66.7c-4,2.1-5,6.9-5.4,11c7.8,0,15.6,0,23.3,0
			c-0.3-4.2-1.7-8.9-5.6-11C161.8,64.9,157.1,64.9,153.2,66.7z"/>
		<path class="st0" d="M73.3,53c2.9-0.8,6.2-0.3,8.4,1.8c1.8,1.8,2.5,4.4,2.5,6.9c0,9.2,0,18.3,0,27.5c0,3.3,1.3,6.8,4.2,8.6
			c2.5,1.6,5.7,1.8,8.6,1.5c2.5-0.3,5-1.5,6.5-3.6c1.6-2.3,1.9-5.3,1.9-8c0-9,0-18,0-26.9c0-3.1,1.9-6.3,4.9-7.4
			c3.2-1.3,7.4-0.7,9.6,2.1c1.8,2,2.1,4.8,2.1,7.4c-0.1,8.3,0.1,16.5-0.1,24.8c-0.2,7.1-2.1,14.6-7.5,19.6
			c-5.8,5.3-14.1,6.6-21.6,6.3c-7-0.2-14.4-2.3-19.2-7.7c-4.4-4.9-6-11.7-6.1-18.1c0-9,0-18,0-26.9C67.7,57.3,70,54,73.3,53z"/>
		<path class="st0" d="M276.8,53.1c7.8-1,16.3-0.6,23.1,3.6c4.7,2.8,7.9,7.7,9.3,13c1,3.5,1.3,7.1,1.3,10.7c0,7.9,0,15.9,0,23.8
			c0,2.6-0.8,5.4-2.8,7.2c-3,2.7-7.8,2.7-10.9,0.2c-2-1.6-3.1-4.3-3-6.9c0-7.9,0-15.9,0-23.8c0-3.5,0.1-7.3-2-10.3
			c-1.7-2.6-4.9-3.8-7.9-3.9c-3-0.1-6.2,0.5-8.4,2.6c-2.1,2.1-2.8,5.1-2.8,8c0,9,0,18,0,27c0,2.1-0.5,4.4-1.8,6.1
			c-2.8,3.8-9.2,4.1-12.4,0.7c-1.6-1.6-2.4-4-2.3-6.3c0-6,0-12.1,0-18.1c0.1-5.5-0.4-11.1,1.1-16.5c1.2-5.1,4.2-9.9,8.6-12.9
			C269.1,55,273,53.7,276.8,53.1z"/>
		<path class="st0" d="M330.5,59.7c5.7-5,13.4-7.1,20.8-7c7.3,0,14.7,1.5,21.1,5.1c2.9,1.6,5.1,4.7,5.1,8.1c0,17.1,0,34.2,0,51.3
			c-0.1,7.7-2.6,15.9-8.6,21.1c-6.1,5.2-14.4,6.8-22.2,6.7c-6-0.3-12-1.8-17.2-4.9c-1.9-1.2-3.6-2.7-4.7-4.6c-2-3.7,0.3-8.9,4.4-9.8
			c3-0.5,5.8,1,8.5,2.1c3.7,1.6,7.6,2.5,11.7,2.4c3.4,0,7.1-0.9,9.6-3.4c2.3-2.4,3-5.9,3-9.1c0-3,0-6,0-8.9
			c-4.7,4.1-11.3,5.1-17.3,4.7c-6.3-0.4-12.5-3.2-16.6-8.1c-5.8-6.7-7.5-15.9-7.1-24.5C321.2,73,324.4,64.9,330.5,59.7 M348,66.9
			c-2.5,0.4-5,1.6-6.8,3.4c-3.3,3.5-4,8.6-4,13.2c0.1,4.2,0.4,8.7,3,12.2c2.4,3.2,6.8,3.9,10.6,3.6c3.6-0.2,7.2-2.1,8.8-5.4
			c3.1-5.9,2-12.8,2.2-19.2c-0.1-1.9,0.6-4.4-1.3-5.6C356.9,66.5,352.2,66.2,348,66.9z"/>
		<path class="st0" d="M6.6,57.4c1.8-3.4,6.1-4.7,9.7-4c2.8,0.5,4.9,3.1,5.6,5.7c3.3,11,6.6,22.1,9.8,33.1c0.2,0.6,0.5,1.3,0.8,1.8
			c3.4-11.3,6.8-22.7,10.1-34c0.6-2.4,1.8-5,4.2-6.1c3.8-1.7,9.1-0.5,11.3,3.2c1.4,2.5,1,5.5,0,8.1c-4.7,13-9.2,26-13.9,38.9
			c-1,2.5-1.9,5.2-3.8,7.1c-2,1.9-5,2.1-7.6,2.1c-2.9,0-6.2-0.3-8.4-2.4c-2.1-2-3.1-4.7-4.1-7.3c-4.6-13-9.2-26-13.8-39
			C5.6,62.4,5.4,59.7,6.6,57.4z"/>
		<path class="st0" d="M232.4,53.8c3.5-1.4,7.9-0.3,10,2.9c1.3,1.8,1.6,4,1.5,6.1c0,13.8,0,27.6,0,41.4c0,2.3-0.6,4.7-2.2,6.5
			c-3,3.5-9.1,3.6-12.2,0.2c-1.5-1.7-2.3-3.9-2.2-6.2c0-14.3,0-28.7,0-43C227.3,58.5,229.2,55,232.4,53.8z"/>
	</g>
	<g id="color_fbe666ff">
		<path class="st1" d="M388.8,22.3c2.6-0.8,5.5-0.8,8.1,0c3.3,1,5.8,4,6.4,7.3c0.4,2.9,0.2,6.1-1.6,8.6c-3.5,4.9-11,5.5-15.7,2.2
			C380,35.9,381.3,24.5,388.8,22.3z"/>
	</g>
</g>
</svg>
