<svg version="1.1" id="Layer_1" xmlns="http://www.w3.org/2000/svg" xmlns:xlink="http://www.w3.org/1999/xlink" x="0px" y="0px"
	 viewBox="0 0 148.8 54" style="enable-background:new 0 0 148.8 54;" xml:space="preserve">
<style type="text/css">
	.st0{fill:#21293F;}
	.st1{fill:none;stroke:#21293F;stroke-width:0.6372;}
</style>
<g>
	<path class="st0" d="M65,31.2h5.7c3.2,0,7.6-0.5,7.6-5.1c0-3.6-2.4-4.9-7.4-4.9H65V31.2z M65,15.8h5.6c4.1,0,6.2-1.8,6.2-4.4
		c0-3-2.1-4.5-6.7-4.5H65V15.8z M58.8,1.7h13.6c5.3,0,10.7,2.4,10.7,8.7c0,3.9-2.5,6.5-6,7.6v0.1c4.4,0.5,7.5,3.9,7.5,8.4
		c0,7.6-6.6,9.9-13.2,9.9H58.8V1.7z"/>
	<path class="st0" d="M117.6,33.9c-4.2,2.3-9,3.4-14.4,3.4c-10.7,0-18.4-7.3-18.4-18.1c0-11.2,7.7-18.4,18.4-18.4
		c5.3,0,10.1,1.1,13.7,4.4l-4.6,4.6c-2.2-2.2-5.6-3.4-9.1-3.4c-7.2,0-11.9,5.5-11.9,12.4c0,7.4,4.8,12.9,11.9,12.9
		c3.1,0,6-0.6,8.2-1.8v-8.2h-7.1v-5.6h13.3V33.9z"/>
</g>
<polygon class="st0" points="141.4,1.7 132.8,15.5 124.2,1.7 116.5,1.7 129.5,21.6 129.5,36.5 135.7,36.5 135.7,21.6 148.8,1.7 "/>
<polygon class="st0" points="23.1,12 23.1,4 23.1,4 20.9,12 19.8,12 17.7,4 17.6,4 17.6,12 16.5,12 16.5,2.3 18.3,2.3 20.4,10 
	20.4,10 22.4,2.3 24.3,2.3 24.3,12 "/>
<rect x="25.9" y="2.3" class="st0" width="1.2" height="9.6"/>
<polygon class="st0" points="28.7,12 28.7,2.3 29.9,2.3 29.9,10.8 32.6,10.8 32.6,12 "/>
<path class="st0" d="M36.6,3.5L36.6,3.5l-1.3,5.3h2.5L36.6,3.5z M38.5,12l-0.5-2.3h-2.8L34.6,12h-1.2l2.4-9.6h1.6l2.4,9.6H38.5z"/>
<polygon class="st0" points="44.6,12 41.5,4.5 41.5,4.5 41.5,12 40.4,12 40.4,2.3 41.8,2.3 44.9,9.8 44.9,9.8 44.9,2.3 46,2.3 
	46,12 "/>
<g>
	<path class="st0" d="M4.4,21.1c0-0.3-0.1-0.6-0.2-0.8c-0.1-0.2-0.2-0.4-0.4-0.6c-0.2-0.1-0.3-0.2-0.6-0.3c-0.2-0.1-0.4-0.1-0.6-0.1
		H1.6v3.5h1.2c0.2,0,0.4,0,0.6-0.1c0.2-0.1,0.4-0.2,0.5-0.3c0.1-0.1,0.3-0.3,0.4-0.5C4.4,21.7,4.4,21.4,4.4,21.1 M4.1,16.8
		c0-0.3,0-0.5-0.1-0.7c-0.1-0.2-0.2-0.4-0.4-0.5c-0.1-0.1-0.3-0.2-0.5-0.3c-0.2,0-0.4-0.1-0.6-0.1h-1v3.1h1c0.2,0,0.4,0,0.6-0.1
		c0.2-0.1,0.4-0.1,0.5-0.3c0.1-0.1,0.3-0.3,0.4-0.5C4.1,17.3,4.1,17.1,4.1,16.8 M4,18.8c0.2,0,0.4,0.1,0.6,0.2
		c0.2,0.1,0.4,0.3,0.5,0.5c0.2,0.2,0.3,0.4,0.4,0.7c0.1,0.3,0.2,0.6,0.2,1c0,0.5-0.1,0.9-0.2,1.2c-0.2,0.3-0.4,0.6-0.6,0.8
		c-0.3,0.2-0.5,0.4-0.8,0.4c-0.3,0.1-0.6,0.1-0.9,0.1H0.4v-9.6h2.3c0.3,0,0.6,0,0.9,0.1c0.3,0.1,0.6,0.2,0.8,0.4
		c0.3,0.2,0.5,0.4,0.6,0.7c0.2,0.3,0.2,0.7,0.2,1.2c0,0.3,0,0.6-0.1,0.8c-0.1,0.2-0.2,0.4-0.3,0.6c-0.1,0.2-0.3,0.3-0.4,0.4
		C4.3,18.6,4.1,18.7,4,18.8L4,18.8z"/>
</g>
<polygon class="st0" points="6.7,23.8 6.7,14.2 10.7,14.2 10.7,15.3 7.8,15.3 7.8,18.3 10.5,18.3 10.5,19.4 7.8,19.4 7.8,22.7 
	10.8,22.7 10.8,23.8 "/>
<g>
	<path class="st0" d="M15.8,16.9c0-0.3,0-0.6-0.1-0.8c-0.1-0.2-0.2-0.4-0.4-0.5c-0.1-0.1-0.3-0.2-0.5-0.3c-0.2-0.1-0.4-0.1-0.6-0.1
		h-1.1v3.4h1.1c0.5,0,0.8-0.1,1.1-0.4C15.6,17.9,15.8,17.4,15.8,16.9 M15.9,23.8l-1.6-4.3h-1.1v4.3h-1.2v-9.6h2.5c0.4,0,0.7,0,1,0.1
		c0.3,0.1,0.6,0.2,0.8,0.5c0.2,0.2,0.4,0.5,0.6,0.8c0.1,0.3,0.2,0.7,0.2,1.2c0,0.4,0,0.7-0.2,1c-0.1,0.3-0.2,0.5-0.4,0.7
		c-0.2,0.2-0.3,0.4-0.5,0.5c-0.2,0.1-0.4,0.2-0.6,0.2l1.8,4.5H15.9z"/>
	<path class="st0" d="M21,14c0.5,0,1,0.1,1.4,0.3c0.4,0.2,0.7,0.5,1,0.9L22.6,16c-0.2-0.3-0.4-0.5-0.7-0.7c-0.3-0.1-0.5-0.2-0.9-0.2
		c-0.4,0-0.7,0.1-1,0.3c-0.3,0.2-0.5,0.5-0.7,0.8c-0.2,0.4-0.3,0.8-0.4,1.2c-0.1,0.5-0.1,1-0.1,1.5c0,0.6,0,1.1,0.1,1.5
		c0.1,0.5,0.2,0.9,0.4,1.2c0.2,0.3,0.4,0.6,0.7,0.8c0.3,0.2,0.6,0.3,1,0.3c0.5,0,0.9-0.1,1.2-0.3v-3h-1.3v-1.1h2.4v4.7
		c-0.3,0.2-0.6,0.4-1,0.6C22.2,24,21.7,24,21.2,24c-0.6,0-1-0.1-1.5-0.4c-0.4-0.2-0.8-0.6-1.1-1c-0.3-0.4-0.5-1-0.7-1.6
		c-0.2-0.6-0.2-1.3-0.2-2.1c0-0.7,0.1-1.4,0.2-2c0.2-0.6,0.4-1.1,0.7-1.6s0.6-0.8,1.1-1.1C20,14.1,20.5,14,21,14"/>
</g>
<path class="st0" d="M27.2,15.4L27.2,15.4l-1.3,5.3h2.5L27.2,15.4z M29.1,23.8l-0.5-2.3h-2.8l-0.6,2.3h-1.2l2.4-9.6H28l2.4,9.6H29.1
	z"/>
<polygon class="st0" points="37.5,23.8 37.5,15.9 37.5,15.9 35.3,23.8 34.2,23.8 32.1,15.9 32.1,15.9 32.1,23.8 31,23.8 31,14.2 
	32.8,14.2 34.8,21.9 34.9,21.9 36.9,14.2 38.8,14.2 38.8,23.8 "/>
<g>
	<path class="st0" d="M45.2,19c0-0.5,0-1.1-0.1-1.5c-0.1-0.5-0.2-0.9-0.4-1.3c-0.2-0.4-0.4-0.6-0.6-0.8c-0.2-0.2-0.5-0.3-0.9-0.3
		c-0.3,0-0.6,0.1-0.9,0.3c-0.3,0.2-0.5,0.5-0.6,0.8c-0.2,0.4-0.3,0.8-0.4,1.3c-0.1,0.5-0.1,1-0.1,1.5c0,0.5,0,1.1,0.1,1.5
		c0.1,0.5,0.2,0.9,0.4,1.3c0.2,0.4,0.4,0.6,0.6,0.8c0.3,0.2,0.5,0.3,0.9,0.3c0.3,0,0.6-0.1,0.9-0.3c0.2-0.2,0.5-0.5,0.6-0.8
		c0.2-0.4,0.3-0.8,0.4-1.3C45.2,20.1,45.2,19.6,45.2,19 M46.5,19c0,0.8-0.1,1.4-0.2,2.1c-0.1,0.6-0.4,1.2-0.7,1.6
		c-0.3,0.4-0.6,0.8-1,1c-0.4,0.2-0.9,0.4-1.4,0.4c-0.5,0-1-0.1-1.4-0.4c-0.4-0.2-0.8-0.6-1-1c-0.3-0.4-0.5-1-0.7-1.6
		c-0.1-0.6-0.2-1.3-0.2-2.1c0-0.8,0.1-1.4,0.2-2.1c0.1-0.6,0.4-1.1,0.6-1.6c0.3-0.4,0.6-0.8,1-1c0.4-0.2,0.9-0.4,1.4-0.4
		c0.5,0,1,0.1,1.4,0.4c0.4,0.2,0.7,0.6,1,1c0.3,0.4,0.5,1,0.7,1.6C46.4,17.6,46.5,18.3,46.5,19"/>
</g>
<path class="st0" d="M11.6,27.3L11.6,27.3l-1.3,5.3h2.5L11.6,27.3z M13.5,35.7l-0.5-2.3h-2.8l-0.6,2.3H8.3l2.4-9.6h1.6l2.4,9.6H13.5
	z"/>
<rect x="15.4" y="26.1" class="st0" width="1.2" height="9.6"/>
<g>
	<path class="st0" d="M22,28.8c0-0.3,0-0.6-0.1-0.8c-0.1-0.2-0.2-0.4-0.4-0.5c-0.1-0.1-0.3-0.2-0.5-0.3c-0.2-0.1-0.4-0.1-0.6-0.1
		h-1.1v3.4h1.1c0.5,0,0.8-0.1,1.1-0.4C21.9,29.8,22,29.3,22,28.8 M22.1,35.7l-1.6-4.3h-1.1v4.3h-1.2v-9.6h2.5c0.4,0,0.7,0,1,0.1
		c0.3,0.1,0.6,0.2,0.8,0.5c0.2,0.2,0.4,0.5,0.6,0.8c0.1,0.3,0.2,0.7,0.2,1.2c0,0.4,0,0.7-0.2,1c-0.1,0.3-0.2,0.5-0.4,0.7
		c-0.2,0.2-0.3,0.4-0.5,0.5c-0.2,0.1-0.4,0.2-0.6,0.2l1.8,4.5H22.1z"/>
	<path class="st0" d="M28.1,28.8c0-0.6-0.1-1-0.4-1.3c-0.3-0.3-0.6-0.4-1.1-0.4h-1.1v3.4h1.1c0.4,0,0.8-0.1,1.1-0.4
		C28,29.9,28.1,29.4,28.1,28.8 M29.3,28.8c0,0.5-0.1,0.9-0.2,1.2c-0.1,0.4-0.3,0.6-0.6,0.9c-0.2,0.2-0.5,0.4-0.8,0.5
		c-0.3,0.1-0.6,0.2-0.9,0.2h-1.3v4.1h-1.2v-9.6h2.4c0.3,0,0.6,0,0.9,0.1c0.3,0.1,0.6,0.2,0.8,0.4c0.2,0.2,0.4,0.5,0.6,0.8
		C29.3,27.9,29.3,28.3,29.3,28.8"/>
	<path class="st0" d="M35.1,30.9c0-0.5,0-1.1-0.1-1.5c-0.1-0.5-0.2-0.9-0.4-1.2s-0.4-0.6-0.6-0.8c-0.2-0.2-0.5-0.3-0.9-0.3
		c-0.3,0-0.6,0.1-0.9,0.3c-0.3,0.2-0.5,0.5-0.6,0.8s-0.3,0.8-0.4,1.2c-0.1,0.5-0.1,1-0.1,1.5c0,0.5,0,1.1,0.1,1.5
		c0.1,0.5,0.2,0.9,0.4,1.3s0.4,0.6,0.6,0.8c0.3,0.2,0.5,0.3,0.9,0.3c0.3,0,0.6-0.1,0.9-0.3c0.2-0.2,0.5-0.5,0.6-0.8s0.3-0.8,0.4-1.3
		C35.1,32,35.1,31.5,35.1,30.9 M36.4,30.9c0,0.8-0.1,1.4-0.2,2.1c-0.1,0.6-0.4,1.2-0.7,1.6c-0.3,0.4-0.6,0.8-1,1
		c-0.4,0.2-0.9,0.4-1.4,0.4c-0.5,0-1-0.1-1.4-0.4s-0.8-0.6-1-1c-0.3-0.4-0.5-1-0.7-1.6c-0.1-0.6-0.2-1.3-0.2-2.1
		c0-0.8,0.1-1.4,0.2-2.1c0.1-0.6,0.4-1.1,0.6-1.6c0.3-0.4,0.6-0.8,1-1c0.4-0.2,0.9-0.4,1.4-0.4c0.5,0,1,0.1,1.4,0.4
		c0.4,0.2,0.7,0.6,1,1c0.3,0.4,0.5,1,0.7,1.6C36.3,29.5,36.4,30.2,36.4,30.9"/>
	<path class="st0" d="M41.4,28.8c0-0.3,0-0.6-0.1-0.8c-0.1-0.2-0.2-0.4-0.4-0.5c-0.1-0.1-0.3-0.2-0.5-0.3c-0.2-0.1-0.4-0.1-0.6-0.1
		h-1.1v3.4h1.1c0.5,0,0.8-0.1,1.1-0.4C41.3,29.8,41.4,29.3,41.4,28.8 M41.5,35.7l-1.6-4.3h-1.1v4.3h-1.2v-9.6h2.5c0.4,0,0.7,0,1,0.1
		c0.3,0.1,0.6,0.2,0.8,0.5c0.2,0.2,0.4,0.5,0.6,0.8c0.1,0.3,0.2,0.7,0.2,1.2c0,0.4,0,0.7-0.2,1c-0.1,0.3-0.2,0.5-0.4,0.7
		c-0.2,0.2-0.3,0.4-0.5,0.5c-0.2,0.1-0.4,0.2-0.6,0.2l1.8,4.5H41.5z"/>
</g>
<polygon class="st0" points="45.6,27.2 45.6,35.7 44.4,35.7 44.4,27.2 42.6,27.2 42.6,26.1 47.5,26.1 47.5,27.2 "/>
<polygon class="st0" points="12.6,50.3 11.8,50.3 10.9,46 10.9,46 10,50.3 9.2,50.3 8.1,45 8.8,45 9.6,49.5 9.6,49.5 10.6,45 
	11.3,45 12.2,49.5 12.2,49.5 13,45 13.7,45 "/>
<polygon class="st0" points="19.6,50.3 18.8,50.3 17.9,46 17.8,46 16.9,50.3 16.1,50.3 15.1,45 15.8,45 16.6,49.5 16.6,49.5 
	17.5,45 18.2,45 19.2,49.5 19.2,49.5 20,45 20.7,45 "/>
<polygon class="st0" points="26.5,50.3 25.7,50.3 24.8,46 24.8,46 23.9,50.3 23.1,50.3 22,45 22.7,45 23.5,49.5 23.5,49.5 24.5,45 
	25.2,45 26.1,49.5 26.1,49.5 26.9,45 27.6,45 "/>
<g>
	<path class="st0" d="M30,49.9c0,0.2,0,0.3-0.1,0.4c-0.1,0.1-0.2,0.1-0.4,0.1c-0.1,0-0.3,0-0.4-0.1C29,50.1,29,50,29,49.9
		c0-0.1,0-0.3,0.1-0.4c0.1-0.1,0.2-0.2,0.4-0.2c0.1,0,0.3,0.1,0.4,0.2C29.9,49.6,30,49.7,30,49.9"/>
	<path class="st0" d="M33.5,45.2c0.2-0.2,0.5-0.3,0.9-0.3c0.2,0,0.4,0,0.5,0.1c0.1,0.1,0.3,0.2,0.4,0.3c0.1,0.1,0.2,0.2,0.2,0.4
		c0.1,0.2,0.1,0.3,0.1,0.5h0c0-0.2,0.1-0.3,0.2-0.5c0.1-0.1,0.2-0.3,0.3-0.4c0.1-0.1,0.3-0.2,0.4-0.3c0.2-0.1,0.3-0.1,0.5-0.1
		c0.3,0,0.5,0.1,0.7,0.2c0.2,0.1,0.3,0.3,0.4,0.5c0.1,0.2,0.2,0.4,0.2,0.7c0,0.2,0,0.5,0,0.7v3.4h-0.7v-3.4c0-0.2,0-0.3,0-0.5
		c0-0.2-0.1-0.3-0.1-0.5c-0.1-0.1-0.1-0.3-0.3-0.3c-0.1-0.1-0.3-0.1-0.4-0.1c-0.2,0-0.3,0-0.5,0.1c-0.1,0.1-0.3,0.2-0.3,0.4
		c-0.1,0.2-0.2,0.4-0.2,0.6c0,0.2-0.1,0.4-0.1,0.7v3.1h-0.7v-3.4c0-0.2,0-0.3,0-0.5c0-0.2-0.1-0.3-0.1-0.5c-0.1-0.1-0.1-0.3-0.2-0.3
		c-0.1-0.1-0.3-0.1-0.4-0.1c-0.2,0-0.3,0-0.5,0.1c-0.1,0.1-0.2,0.2-0.3,0.4c-0.1,0.2-0.2,0.4-0.2,0.6c0,0.2-0.1,0.4-0.1,0.7v3.1
		h-0.7v-4c0-0.1,0-0.2,0-0.4c0-0.1,0-0.3,0-0.4c0-0.1,0-0.2,0-0.3c0-0.1,0-0.2,0-0.2H33c0,0.1,0,0.3,0,0.5c0,0.2,0,0.4,0,0.5h0
		C33.1,45.7,33.3,45.4,33.5,45.2"/>
	<path class="st0" d="M40.7,45h0.7v5.3h-0.7V45z M41.5,43.4c0,0.1,0,0.3-0.1,0.4c-0.1,0.1-0.2,0.1-0.3,0.1c-0.1,0-0.2,0-0.3-0.1
		c-0.1-0.1-0.1-0.2-0.1-0.4c0-0.1,0-0.3,0.1-0.4c0.1-0.1,0.2-0.1,0.3-0.1c0.1,0,0.2,0,0.3,0.1C41.5,43.1,41.5,43.2,41.5,43.4"/>
</g>
<rect x="43.9" y="42.2" class="st0" width="0.7" height="8.1"/>
<g>
	<path class="st0" d="M49.2,47.6h-0.4c-0.2,0-0.3,0-0.5,0c-0.2,0-0.3,0.1-0.5,0.2c-0.1,0.1-0.2,0.2-0.3,0.4
		c-0.1,0.2-0.1,0.4-0.1,0.6c0,0.4,0.1,0.6,0.2,0.8c0.2,0.2,0.3,0.2,0.5,0.2c0.2,0,0.4-0.1,0.5-0.2c0.1-0.1,0.2-0.3,0.3-0.5
		c0.1-0.2,0.1-0.4,0.2-0.6c0-0.2,0.1-0.4,0.1-0.6V47.6z M49.3,50.3c0-0.1,0-0.1,0-0.2c0-0.1,0-0.2,0-0.3c0-0.1,0-0.2,0-0.3v-0.2h0
		c-0.2,0.8-0.6,1.1-1.3,1.1c-0.2,0-0.3,0-0.4-0.1c-0.1-0.1-0.3-0.1-0.4-0.3c-0.1-0.1-0.2-0.3-0.3-0.5c-0.1-0.2-0.1-0.4-0.1-0.7
		c0-0.4,0.1-0.7,0.2-0.9c0.1-0.2,0.3-0.4,0.5-0.6c0.2-0.1,0.4-0.2,0.7-0.3c0.2,0,0.5-0.1,0.7-0.1h0.4v-0.3c0-0.5-0.1-0.8-0.3-1
		c-0.2-0.2-0.4-0.3-0.7-0.3c-0.2,0-0.4,0.1-0.6,0.2c-0.2,0.1-0.3,0.2-0.4,0.4l-0.4-0.4c0.2-0.2,0.4-0.4,0.6-0.5
		c0.3-0.1,0.5-0.2,0.8-0.2c0.6,0,1,0.2,1.2,0.5c0.2,0.4,0.4,0.9,0.4,1.6v2.2c0,0.1,0,0.2,0,0.3c0,0.1,0,0.2,0,0.3c0,0.1,0,0.2,0,0.3
		c0,0.1,0,0.2,0,0.2H49.3z"/>
	<path class="st0" d="M54.9,50.3v-3.4c0-0.2,0-0.3,0-0.5c0-0.2-0.1-0.3-0.1-0.5c-0.1-0.1-0.1-0.3-0.3-0.3c-0.1-0.1-0.3-0.1-0.4-0.1
		c-0.2,0-0.3,0-0.5,0.1c-0.1,0.1-0.3,0.2-0.4,0.4c-0.1,0.2-0.2,0.4-0.2,0.6c-0.1,0.2-0.1,0.4-0.1,0.7v3.1h-0.7v-4c0-0.1,0-0.2,0-0.4
		c0-0.1,0-0.3,0-0.4c0-0.1,0-0.2,0-0.3s0-0.2,0-0.2h0.7c0,0.1,0,0.3,0,0.5c0,0.2,0,0.4,0,0.5h0c0.1-0.4,0.3-0.6,0.5-0.9
		c0.2-0.2,0.5-0.3,0.9-0.3c0.3,0,0.5,0.1,0.7,0.2c0.2,0.1,0.3,0.3,0.4,0.5c0.1,0.2,0.2,0.4,0.2,0.7c0,0.2,0,0.5,0,0.7v3.4H54.9z"/>
	<path class="st0" d="M61,47.7c0-0.3,0-0.6-0.1-0.9c0-0.3-0.1-0.5-0.2-0.7c-0.1-0.2-0.2-0.4-0.3-0.5c-0.1-0.1-0.3-0.2-0.5-0.2
		c-0.2,0-0.3,0.1-0.5,0.2c-0.1,0.1-0.3,0.3-0.4,0.5c-0.1,0.2-0.2,0.4-0.2,0.7c0,0.3-0.1,0.6-0.1,0.9c0,0.3,0,0.6,0.1,0.9
		c0,0.3,0.1,0.5,0.2,0.7c0.1,0.2,0.2,0.4,0.4,0.5c0.1,0.1,0.3,0.2,0.5,0.2c0.2,0,0.4-0.1,0.5-0.2c0.1-0.1,0.3-0.3,0.3-0.5
		c0.1-0.2,0.2-0.4,0.2-0.7C60.9,48.3,61,48,61,47.7 M61.7,47.6c0,0.4,0,0.8-0.1,1.1c-0.1,0.3-0.2,0.6-0.3,0.9
		c-0.1,0.3-0.3,0.5-0.5,0.6c-0.2,0.1-0.4,0.2-0.7,0.2c-0.4,0-0.6-0.1-0.8-0.3s-0.3-0.5-0.4-0.8h0v1H58v-8.1h0.7v3.7h0
		c0.1-0.3,0.2-0.6,0.5-0.8c0.2-0.2,0.5-0.3,0.8-0.3c0.3,0,0.5,0.1,0.7,0.2c0.2,0.1,0.4,0.3,0.5,0.6c0.1,0.2,0.3,0.5,0.3,0.9
		C61.6,46.9,61.7,47.2,61.7,47.6"/>
	<path class="st0" d="M66.4,47.2c0-0.5-0.1-1-0.2-1.3c-0.2-0.3-0.4-0.5-0.8-0.5c-0.2,0-0.4,0.1-0.5,0.2c-0.1,0.1-0.3,0.3-0.3,0.5
		c-0.1,0.2-0.2,0.4-0.2,0.6c0,0.2-0.1,0.4-0.1,0.5H66.4z M64.2,47.8c0,0.3,0,0.6,0.1,0.8c0,0.2,0.1,0.5,0.2,0.6
		c0.1,0.2,0.2,0.3,0.4,0.4c0.1,0.1,0.3,0.2,0.5,0.2c0.3,0,0.5-0.1,0.6-0.2c0.2-0.2,0.3-0.3,0.4-0.6l0.5,0.3
		c-0.1,0.3-0.3,0.6-0.6,0.8c-0.3,0.2-0.6,0.3-1,0.3c-0.6,0-1.1-0.2-1.4-0.7c-0.3-0.5-0.5-1.2-0.5-2.1c0-0.4,0-0.8,0.1-1.1
		s0.2-0.6,0.4-0.9c0.2-0.2,0.4-0.4,0.6-0.6c0.2-0.1,0.5-0.2,0.8-0.2c0.3,0,0.6,0.1,0.8,0.2c0.2,0.1,0.4,0.3,0.5,0.6
		c0.1,0.2,0.2,0.5,0.3,0.8c0.1,0.3,0.1,0.6,0.1,1v0.4H64.2z"/>
	<path class="st0" d="M70.4,45.2c0.2-0.2,0.4-0.3,0.7-0.3c0.1,0,0.1,0,0.1,0l0,0.7c0,0-0.1,0-0.1,0c0,0-0.1,0-0.1,0
		c-0.2,0-0.3,0.1-0.5,0.2c-0.1,0.1-0.3,0.3-0.3,0.5c-0.1,0.2-0.2,0.4-0.2,0.7s-0.1,0.5-0.1,0.7v2.7h-0.7v-4c0-0.1,0-0.2,0-0.4
		c0-0.1,0-0.3,0-0.4c0-0.1,0-0.2,0-0.3c0-0.1,0-0.2,0-0.2h0.7c0,0.1,0,0.3,0,0.5c0,0.2,0,0.4,0,0.6h0C70,45.7,70.2,45.4,70.4,45.2"
		/>
	<path class="st0" d="M75.5,47.7c0-0.3,0-0.6-0.1-0.9c0-0.3-0.1-0.5-0.2-0.7c-0.1-0.2-0.2-0.4-0.4-0.5c-0.1-0.1-0.3-0.2-0.5-0.2
		c-0.2,0-0.4,0.1-0.5,0.2c-0.1,0.1-0.3,0.3-0.3,0.5c-0.1,0.2-0.2,0.4-0.2,0.7c0,0.3-0.1,0.6-0.1,0.9c0,0.3,0,0.6,0.1,0.9
		s0.1,0.5,0.2,0.7c0.1,0.2,0.2,0.4,0.3,0.5c0.1,0.1,0.3,0.2,0.5,0.2c0.2,0,0.4-0.1,0.5-0.2c0.1-0.1,0.3-0.3,0.4-0.5
		c0.1-0.2,0.2-0.4,0.2-0.7C75.5,48.3,75.5,48,75.5,47.7 M76.2,50.2c0,0.4,0,0.7-0.1,1c-0.1,0.3-0.2,0.6-0.3,0.8
		c-0.1,0.2-0.3,0.4-0.6,0.6c-0.2,0.1-0.5,0.2-0.9,0.2c-0.3,0-0.7-0.1-1-0.2c-0.3-0.2-0.5-0.4-0.7-0.6l0.5-0.5
		c0.1,0.2,0.3,0.4,0.5,0.5c0.2,0.1,0.5,0.2,0.7,0.2c0.2,0,0.4,0,0.6-0.1c0.2-0.1,0.3-0.2,0.4-0.4c0.1-0.2,0.1-0.4,0.2-0.6
		c0-0.2,0.1-0.5,0.1-0.8v-0.9h0c-0.1,0.3-0.2,0.6-0.4,0.8c-0.2,0.2-0.5,0.3-0.8,0.3c-0.3,0-0.5-0.1-0.7-0.2
		c-0.2-0.1-0.4-0.3-0.5-0.6c-0.1-0.3-0.3-0.6-0.3-0.9c-0.1-0.3-0.1-0.7-0.1-1.1c0-0.4,0-0.8,0.1-1.1c0.1-0.3,0.2-0.6,0.3-0.9
		c0.1-0.2,0.3-0.4,0.5-0.6c0.2-0.1,0.5-0.2,0.7-0.2c0.3,0,0.6,0.1,0.8,0.3c0.2,0.2,0.4,0.5,0.5,0.8h0V45h0.7V50.2z"/>
	<path class="st0" d="M80.8,47.6h-0.4c-0.2,0-0.3,0-0.5,0c-0.2,0-0.3,0.1-0.5,0.2c-0.1,0.1-0.2,0.2-0.3,0.4
		c-0.1,0.2-0.1,0.4-0.1,0.6c0,0.4,0.1,0.6,0.2,0.8c0.2,0.2,0.3,0.2,0.5,0.2c0.2,0,0.4-0.1,0.5-0.2c0.1-0.1,0.2-0.3,0.3-0.5
		c0.1-0.2,0.1-0.4,0.2-0.6c0-0.2,0.1-0.4,0.1-0.6V47.6z M80.9,50.3c0-0.1,0-0.1,0-0.2c0-0.1,0-0.2,0-0.3c0-0.1,0-0.2,0-0.3v-0.2h0
		c-0.2,0.8-0.6,1.1-1.3,1.1c-0.1,0-0.3,0-0.4-0.1c-0.1-0.1-0.3-0.1-0.4-0.3c-0.1-0.1-0.2-0.3-0.3-0.5c-0.1-0.2-0.1-0.4-0.1-0.7
		c0-0.4,0.1-0.7,0.2-0.9c0.1-0.2,0.3-0.4,0.5-0.6c0.2-0.1,0.4-0.2,0.7-0.3c0.2,0,0.5-0.1,0.7-0.1h0.4v-0.3c0-0.5-0.1-0.8-0.3-1
		c-0.2-0.2-0.4-0.3-0.7-0.3c-0.2,0-0.4,0.1-0.6,0.2c-0.2,0.1-0.3,0.2-0.4,0.4l-0.4-0.4c0.2-0.2,0.4-0.4,0.6-0.5
		c0.3-0.1,0.5-0.2,0.8-0.2c0.6,0,1,0.2,1.2,0.5c0.2,0.4,0.4,0.9,0.4,1.6v2.2c0,0.1,0,0.2,0,0.3c0,0.1,0,0.2,0,0.3c0,0.1,0,0.2,0,0.3
		c0,0.1,0,0.2,0,0.2H80.9z"/>
	<path class="st0" d="M85,45.2c0.2-0.2,0.5-0.3,0.9-0.3c0.2,0,0.4,0,0.5,0.1c0.1,0.1,0.3,0.2,0.4,0.3c0.1,0.1,0.2,0.2,0.2,0.4
		c0.1,0.2,0.1,0.3,0.1,0.5h0c0-0.2,0.1-0.3,0.2-0.5s0.2-0.3,0.3-0.4c0.1-0.1,0.3-0.2,0.4-0.3c0.2-0.1,0.3-0.1,0.5-0.1
		c0.3,0,0.5,0.1,0.7,0.2c0.2,0.1,0.3,0.3,0.4,0.5c0.1,0.2,0.2,0.4,0.2,0.7s0,0.5,0,0.7v3.4h-0.7v-3.4c0-0.2,0-0.3,0-0.5
		c0-0.2-0.1-0.3-0.1-0.5c-0.1-0.1-0.1-0.3-0.3-0.3c-0.1-0.1-0.3-0.1-0.4-0.1c-0.2,0-0.3,0-0.5,0.1c-0.1,0.1-0.3,0.2-0.3,0.4
		c-0.1,0.2-0.2,0.4-0.2,0.6c0,0.2-0.1,0.4-0.1,0.7v3.1h-0.7v-3.4c0-0.2,0-0.3,0-0.5c0-0.2-0.1-0.3-0.1-0.5c-0.1-0.1-0.1-0.3-0.2-0.3
		c-0.1-0.1-0.3-0.1-0.4-0.1c-0.2,0-0.3,0-0.5,0.1c-0.1,0.1-0.3,0.2-0.3,0.4c-0.1,0.2-0.2,0.4-0.2,0.6c0,0.2-0.1,0.4-0.1,0.7v3.1
		h-0.7v-4c0-0.1,0-0.2,0-0.4c0-0.1,0-0.3,0-0.4s0-0.2,0-0.3c0-0.1,0-0.2,0-0.2h0.7c0,0.1,0,0.3,0,0.5c0,0.2,0,0.4,0,0.5h0
		C84.6,45.7,84.8,45.4,85,45.2"/>
	<path class="st0" d="M94.8,47.7c0-0.3,0-0.6-0.1-0.9c0-0.3-0.1-0.5-0.2-0.7c-0.1-0.2-0.2-0.4-0.3-0.5c-0.1-0.1-0.3-0.2-0.5-0.2
		c-0.2,0-0.4,0.1-0.5,0.2s-0.3,0.3-0.3,0.5c-0.1,0.2-0.2,0.4-0.2,0.7c0,0.3-0.1,0.6-0.1,0.9s0,0.6,0.1,0.9c0,0.3,0.1,0.5,0.2,0.7
		c0.1,0.2,0.2,0.4,0.3,0.5c0.1,0.1,0.3,0.2,0.5,0.2c0.2,0,0.4-0.1,0.5-0.2c0.1-0.1,0.3-0.3,0.3-0.5c0.1-0.2,0.2-0.4,0.2-0.7
		C94.8,48.3,94.8,48,94.8,47.7 M95.6,47.7c0,0.4,0,0.8-0.1,1.1c-0.1,0.3-0.2,0.6-0.4,0.9c-0.2,0.2-0.4,0.4-0.6,0.6
		c-0.2,0.1-0.5,0.2-0.8,0.2c-0.3,0-0.5-0.1-0.8-0.2c-0.2-0.1-0.4-0.3-0.6-0.6c-0.2-0.2-0.3-0.5-0.4-0.9c-0.1-0.3-0.1-0.7-0.1-1.1
		s0-0.8,0.1-1.2c0.1-0.3,0.2-0.6,0.4-0.9c0.2-0.3,0.4-0.4,0.6-0.6c0.2-0.1,0.5-0.2,0.8-0.2c0.3,0,0.5,0.1,0.8,0.2
		c0.2,0.1,0.4,0.3,0.6,0.6c0.2,0.2,0.3,0.5,0.4,0.9C95.5,46.9,95.6,47.3,95.6,47.7"/>
	<path class="st0" d="M99.8,47.6h-0.4c-0.2,0-0.3,0-0.5,0c-0.2,0-0.3,0.1-0.5,0.2c-0.1,0.1-0.2,0.2-0.3,0.4C98,48.4,98,48.6,98,48.8
		c0,0.4,0.1,0.6,0.2,0.8c0.2,0.2,0.3,0.2,0.5,0.2c0.2,0,0.4-0.1,0.5-0.2c0.1-0.1,0.2-0.3,0.3-0.5c0.1-0.2,0.1-0.4,0.2-0.6
		c0-0.2,0.1-0.4,0.1-0.6V47.6z M99.9,50.3c0-0.1,0-0.1,0-0.2c0-0.1,0-0.2,0-0.3c0-0.1,0-0.2,0-0.3v-0.2h0c-0.2,0.8-0.6,1.1-1.3,1.1
		c-0.1,0-0.3,0-0.4-0.1c-0.1-0.1-0.3-0.1-0.4-0.3c-0.1-0.1-0.2-0.3-0.3-0.5c-0.1-0.2-0.1-0.4-0.1-0.7c0-0.4,0.1-0.7,0.2-0.9
		c0.1-0.2,0.3-0.4,0.5-0.6c0.2-0.1,0.4-0.2,0.7-0.3c0.2,0,0.5-0.1,0.7-0.1h0.4v-0.3c0-0.5-0.1-0.8-0.3-1c-0.2-0.2-0.4-0.3-0.7-0.3
		c-0.2,0-0.4,0.1-0.6,0.2c-0.2,0.1-0.3,0.2-0.4,0.4l-0.4-0.4c0.2-0.2,0.4-0.4,0.6-0.5c0.3-0.1,0.5-0.2,0.8-0.2c0.6,0,1,0.2,1.2,0.5
		c0.2,0.4,0.4,0.9,0.4,1.6v2.2c0,0.1,0,0.2,0,0.3c0,0.1,0,0.2,0,0.3c0,0.1,0,0.2,0,0.3c0,0.1,0,0.2,0,0.2H99.9z"/>
	<path class="st0" d="M102.8,45h0.7v5.3h-0.7V45z M103.7,43.4c0,0.1,0,0.3-0.1,0.4c-0.1,0.1-0.2,0.1-0.3,0.1c-0.1,0-0.2,0-0.3-0.1
		c-0.1-0.1-0.1-0.2-0.1-0.4c0-0.1,0-0.3,0.1-0.4c0.1-0.1,0.2-0.1,0.3-0.1c0.1,0,0.2,0,0.3,0.1C103.6,43.1,103.7,43.2,103.7,43.4"/>
	<path class="st0" d="M107.2,45.2c0.2-0.2,0.4-0.3,0.7-0.3c0.1,0,0.1,0,0.1,0l0,0.7c0,0-0.1,0-0.1,0c0,0-0.1,0-0.1,0
		c-0.2,0-0.3,0.1-0.5,0.2c-0.1,0.1-0.3,0.3-0.3,0.5c-0.1,0.2-0.2,0.4-0.2,0.7c0,0.2-0.1,0.5-0.1,0.7v2.7h-0.7v-4c0-0.1,0-0.2,0-0.4
		c0-0.1,0-0.3,0-0.4s0-0.2,0-0.3c0-0.1,0-0.2,0-0.2h0.7c0,0.1,0,0.3,0,0.5c0,0.2,0,0.4,0,0.6h0C106.9,45.7,107,45.4,107.2,45.2"/>
	<path class="st0" d="M112.7,47.7c0-0.3,0-0.6-0.1-0.9c0-0.3-0.1-0.5-0.2-0.7c-0.1-0.2-0.2-0.4-0.3-0.5c-0.1-0.1-0.3-0.2-0.5-0.2
		c-0.2,0-0.4,0.1-0.5,0.2c-0.1,0.1-0.3,0.3-0.4,0.5c-0.1,0.2-0.2,0.4-0.2,0.7c0,0.3-0.1,0.6-0.1,0.9c0,0.3,0,0.6,0.1,0.9
		c0,0.3,0.1,0.5,0.2,0.7s0.2,0.4,0.4,0.5c0.1,0.1,0.3,0.2,0.5,0.2c0.2,0,0.4-0.1,0.5-0.2c0.1-0.1,0.3-0.3,0.3-0.5
		c0.1-0.2,0.2-0.4,0.2-0.7C112.7,48.3,112.7,48,112.7,47.7 M113.4,47.7c0,0.4,0,0.8-0.1,1.1c-0.1,0.3-0.2,0.6-0.3,0.9
		c-0.1,0.3-0.3,0.4-0.5,0.6c-0.2,0.1-0.4,0.2-0.7,0.2c-0.3,0-0.6-0.1-0.8-0.3c-0.2-0.2-0.4-0.5-0.5-0.8h0v3.5h-0.7V45h0.7v1h0
		c0.1-0.3,0.2-0.6,0.4-0.8c0.2-0.2,0.5-0.3,0.8-0.3c0.3,0,0.5,0.1,0.7,0.2c0.2,0.1,0.4,0.3,0.5,0.6c0.1,0.3,0.3,0.5,0.3,0.9
		C113.4,46.9,113.4,47.3,113.4,47.7"/>
	<path class="st0" d="M118.2,47.7c0-0.3,0-0.6-0.1-0.9c0-0.3-0.1-0.5-0.2-0.7c-0.1-0.2-0.2-0.4-0.3-0.5c-0.1-0.1-0.3-0.2-0.5-0.2
		c-0.2,0-0.4,0.1-0.5,0.2s-0.3,0.3-0.3,0.5c-0.1,0.2-0.2,0.4-0.2,0.7c0,0.3-0.1,0.6-0.1,0.9s0,0.6,0.1,0.9c0,0.3,0.1,0.5,0.2,0.7
		c0.1,0.2,0.2,0.4,0.3,0.5c0.1,0.1,0.3,0.2,0.5,0.2c0.2,0,0.4-0.1,0.5-0.2c0.1-0.1,0.3-0.3,0.3-0.5c0.1-0.2,0.2-0.4,0.2-0.7
		C118.2,48.3,118.2,48,118.2,47.7 M118.9,47.7c0,0.4,0,0.8-0.1,1.1c-0.1,0.3-0.2,0.6-0.4,0.9c-0.2,0.2-0.4,0.4-0.6,0.6
		c-0.2,0.1-0.5,0.2-0.8,0.2c-0.3,0-0.5-0.1-0.8-0.2c-0.2-0.1-0.4-0.3-0.6-0.6c-0.2-0.2-0.3-0.5-0.4-0.9c-0.1-0.3-0.1-0.7-0.1-1.1
		s0-0.8,0.1-1.2c0.1-0.3,0.2-0.6,0.4-0.9c0.2-0.3,0.4-0.4,0.6-0.6c0.2-0.1,0.5-0.2,0.8-0.2c0.3,0,0.5,0.1,0.8,0.2
		c0.2,0.1,0.4,0.3,0.6,0.6c0.2,0.2,0.3,0.5,0.4,0.9C118.9,46.9,118.9,47.3,118.9,47.7"/>
	<path class="st0" d="M122.3,45.2c0.2-0.2,0.4-0.3,0.7-0.3c0.1,0,0.1,0,0.1,0l0,0.7c0,0-0.1,0-0.1,0c0,0-0.1,0-0.1,0
		c-0.2,0-0.3,0.1-0.5,0.2c-0.1,0.1-0.3,0.3-0.3,0.5c-0.1,0.2-0.2,0.4-0.2,0.7s-0.1,0.5-0.1,0.7v2.7h-0.7v-4c0-0.1,0-0.2,0-0.4
		c0-0.1,0-0.3,0-0.4c0-0.1,0-0.2,0-0.3c0-0.1,0-0.2,0-0.2h0.7c0,0.1,0,0.3,0,0.5c0,0.2,0,0.4,0,0.6h0
		C121.9,45.7,122.1,45.4,122.3,45.2"/>
	<path class="st0" d="M126.2,50.4c-0.1,0-0.2,0-0.4,0c-0.4,0-0.6-0.1-0.8-0.4c-0.2-0.3-0.2-0.6-0.2-1v-3.5h-0.7V45h0.7v-1.5h0.7V45
		h0.9v0.6h-0.9v3.3c0,0.3,0,0.6,0.1,0.7s0.2,0.2,0.4,0.2c0.1,0,0.1,0,0.2,0c0.1,0,0.1,0,0.2-0.1l0,0.6
		C126.5,50.4,126.4,50.4,126.2,50.4"/>
	<path class="st0" d="M129.1,49.9c0,0.2,0,0.3-0.1,0.4c-0.1,0.1-0.2,0.1-0.4,0.1s-0.3,0-0.4-0.1c-0.1-0.1-0.1-0.2-0.1-0.4
		c0-0.1,0-0.3,0.1-0.4c0.1-0.1,0.2-0.2,0.4-0.2s0.3,0.1,0.4,0.2C129.1,49.6,129.1,49.7,129.1,49.9"/>
	<path class="st0" d="M131.4,45h0.7v5.3h-0.7V45z M132.3,43.4c0,0.1,0,0.3-0.1,0.4c-0.1,0.1-0.2,0.1-0.3,0.1c-0.1,0-0.2,0-0.3-0.1
		c-0.1-0.1-0.1-0.2-0.1-0.4c0-0.1,0-0.3,0.1-0.4c0.1-0.1,0.2-0.1,0.3-0.1c0.1,0,0.2,0,0.3,0.1C132.2,43.1,132.3,43.2,132.3,43.4"/>
	<path class="st0" d="M136,50.4c-0.1,0-0.2,0-0.4,0c-0.4,0-0.6-0.1-0.8-0.4c-0.2-0.3-0.2-0.6-0.2-1v-3.5H134V45h0.7v-1.5h0.7V45h0.9
		v0.6h-0.9v3.3c0,0.3,0,0.6,0.1,0.7c0.1,0.1,0.2,0.2,0.4,0.2c0.1,0,0.1,0,0.2,0c0.1,0,0.1,0,0.2-0.1l0,0.6
		C136.2,50.4,136.1,50.4,136,50.4"/>
	<line class="st1" x1="52.4" y1="1.1" x2="52.4" y2="36.6"/>
</g>
</svg>
